<svg width="93" height="53" viewBox="0 0 93 53" fill="none" xmlns="http://www.w3.org/2000/svg">
<path d="M0.0234375 46.048L25.1514 0.903997H26.3754L51.6474 46.048L36.1674 52.456L33.9354 47.056H16.8714L14.6394 52.456L0.0234375 46.048ZM27.3834 31.216L25.4394 26.608L20.9754 37.192H29.8314L27.3834 31.216Z" fill="white"/>
<path d="M73.6648 3.64C75.6808 3.64 77.6968 3.856 79.7128 4.288C81.7768 4.672 83.6728 5.416 85.4008 6.52C87.2248 7.672 88.6888 9.256 89.7928 11.272C90.8968 13.288 91.4248 15.736 91.3768 18.616C91.3288 21.064 90.9208 23.248 90.1528 25.168C89.4328 27.088 88.0648 28.816 86.0488 30.352L85.2568 30.928L92.6728 44.032L79.3528 50.44L70.4248 32.944L69.7048 33.016L69.6328 49H54.9448V3.64H73.6648ZM70.4968 24.232C71.1688 24.232 71.8408 24.208 72.5128 24.16C73.2328 24.112 73.9048 23.968 74.5288 23.728C75.2488 23.488 75.8728 23.056 76.4008 22.432C76.9288 21.76 77.1928 20.896 77.1928 19.84C77.2408 18.784 77.0008 17.992 76.4728 17.464C75.9928 16.888 75.4168 16.48 74.7448 16.24C74.1208 16 73.4728 15.88 72.8008 15.88C72.1288 15.832 71.4088 15.808 70.6408 15.808H69.6328V24.232H70.4968Z" fill="#FBC400"/>
</svg>
