<svg width="223" height="232" viewBox="0 0 223 232" fill="none" xmlns="http://www.w3.org/2000/svg">
<path d="M65.0234 131.048L90.1514 85.904H91.3754L116.647 131.048L101.167 137.456L98.9354 132.056H81.8714L79.6394 137.456L65.0234 131.048ZM92.3834 116.216L90.4394 111.608L85.9754 122.192H94.8314L92.3834 116.216Z" fill="white"/>
<path d="M138.665 88.64C140.681 88.64 142.697 88.856 144.713 89.288C146.777 89.672 148.673 90.416 150.401 91.52C152.225 92.672 153.689 94.256 154.793 96.272C155.897 98.288 156.425 100.736 156.377 103.616C156.329 106.064 155.921 108.248 155.153 110.168C154.433 112.088 153.065 113.816 151.049 115.352L150.257 115.928L157.673 129.032L144.353 135.44L135.425 117.944L134.705 118.016L134.633 134H119.945V88.64H138.665ZM135.497 109.232C136.169 109.232 136.841 109.208 137.513 109.16C138.233 109.112 138.905 108.968 139.529 108.728C140.249 108.488 140.873 108.056 141.401 107.432C141.929 106.76 142.193 105.896 142.193 104.84C142.241 103.784 142.001 102.992 141.473 102.464C140.993 101.888 140.417 101.48 139.745 101.24C139.121 101 138.473 100.88 137.801 100.88C137.129 100.832 136.409 100.808 135.641 100.808H134.633V109.232H135.497Z" fill="#FBC400"/>
<mask id="mask0" mask-type="alpha" maskUnits="userSpaceOnUse" x="65" y="85" width="93" height="53">
<path d="M65.0234 131.048L90.1514 85.904H91.3754L116.647 131.048L101.167 137.456L98.9354 132.056H81.8714L79.6394 137.456L65.0234 131.048ZM92.3834 116.216L90.4394 111.608L85.9754 122.192H94.8314L92.3834 116.216Z" fill="white"/>
<path d="M138.665 88.64C140.681 88.64 142.697 88.856 144.713 89.288C146.777 89.672 148.673 90.416 150.401 91.52C152.225 92.672 153.689 94.256 154.793 96.272C155.897 98.288 156.425 100.736 156.377 103.616C156.329 106.064 155.921 108.248 155.153 110.168C154.433 112.088 153.065 113.816 151.049 115.352L150.257 115.928L157.673 129.032L144.353 135.44L135.425 117.944L134.705 118.016L134.633 134H119.945V88.64H138.665ZM135.497 109.232C136.169 109.232 136.841 109.208 137.513 109.16C138.233 109.112 138.905 108.968 139.529 108.728C140.249 108.488 140.873 108.056 141.401 107.432C141.929 106.76 142.193 105.896 142.193 104.84C142.241 103.784 142.001 102.992 141.473 102.464C140.993 101.888 140.417 101.48 139.745 101.24C139.121 101 138.473 100.88 137.801 100.88C137.129 100.832 136.409 100.808 135.641 100.808H134.633V109.232H135.497Z" fill="#FBC400"/>
</mask>
<g mask="url(#mask0)">
<ellipse cx="149" cy="127.5" rx="27" ry="25.5" fill="#DCAE09"/>
</g>
</svg>
